<?xml version="1.0" encoding="iso-8859-1"?>
<!-- Generator: Adobe Illustrator 16.0.0, SVG Export Plug-In . SVG Version: 6.00 Build 0)  -->
<!DOCTYPE svg PUBLIC "-//W3C//DTD SVG 1.1//EN" "http://www.w3.org/Graphics/SVG/1.1/DTD/svg11.dtd">
<svg version="1.1" id="Capa_1" xmlns="http://www.w3.org/2000/svg" xmlns:xlink="http://www.w3.org/1999/xlink" x="0px" y="0px"
	 width="31.299px" height="31.299px" viewBox="0 0 31.299 31.299" style="enable-background:new 0 0 31.299 31.299;"
	 xml:space="preserve">
<g>
	<g>
		<circle cx="11.51" cy="17.408" r="1.875"/>
		<path d="M0.001,0v31.299h31.297V0H0.001z M27.676,19.426c-0.438,4.371-5.627,7.834-11.952,7.834
			c-6.284,0-11.446-3.419-11.943-7.749c-1.213-0.726-2.037-2.067-2.037-3.618c0-2.316,1.823-4.199,4.063-4.199
			c0.814,0,1.569,0.25,2.206,0.675c-0.038,0.026-0.071,0.056-0.109,0.083c1.893-1.15,4.299-1.886,6.939-2.021l2.117-6.072
			l4.533,1.084c0.556-0.904,1.548-1.513,2.686-1.513c1.748,0,3.17,1.421,3.17,3.169s-1.422,3.169-3.17,3.169
			c-1.744,0-3.167-1.421-3.167-3.169c0-0.107,0.021-0.208,0.03-0.313l-3.171-0.759l-1.529,4.394c2.653,0.095,5.087,0.79,7.015,1.911
			c0.623-0.4,1.352-0.637,2.138-0.637c2.239,0,4.063,1.883,4.063,4.199C29.558,17.377,28.805,18.68,27.676,19.426z"/>
		<circle cx="19.567" cy="17.409" r="1.874"/>
		<path d="M19.269,21.576c-3.972,2.619-7.174,0.149-7.318,0.039c-0.303-0.246-0.745-0.195-0.988,0.105
			c-0.244,0.305-0.196,0.748,0.105,0.992c0.026,0.021,1.856,1.462,4.513,1.462c1.32,0,2.852-0.356,4.464-1.422
			c0.325-0.214,0.415-0.651,0.2-0.978C20.03,21.451,19.593,21.361,19.269,21.576z"/>
	</g>
</g>
<g>
</g>
<g>
</g>
<g>
</g>
<g>
</g>
<g>
</g>
<g>
</g>
<g>
</g>
<g>
</g>
<g>
</g>
<g>
</g>
<g>
</g>
<g>
</g>
<g>
</g>
<g>
</g>
<g>
</g>
</svg>
