<?xml version="1.0" encoding="iso-8859-1"?>
<!-- Generator: Adobe Illustrator 19.0.0, SVG Export Plug-In . SVG Version: 6.00 Build 0)  -->
<svg version="1.1" id="Capa_1" xmlns="http://www.w3.org/2000/svg" xmlns:xlink="http://www.w3.org/1999/xlink" x="0px" y="0px"
	 viewBox="0 0 512 512" style="enable-background:new 0 0 512 512;" xml:space="preserve">
<g>
	<g>
		<g>
			<path d="M441.414,0H232.535h-0.009c-0.018,0-0.035,0-0.053,0c0,0,0,0-0.009,0c0,0-0.009,0-0.018,0c0,0-0.009,0-0.018,0
				c0,0,0,0-0.009,0c-2.201,0.009-4.313,0.461-6.23,1.26c-1.864,0.781-3.612,1.926-5.139,3.426c0,0-0.009,0-0.009,0.009
				c0,0,0,0-0.009,0c-0.053,0.062-0.115,0.115-0.169,0.177L58.951,168.223c-4.659,4.704-6.026,11.733-3.488,17.839
				c2.547,6.115,8.511,10.082,15.123,10.082h161.931c9.052,0,16.383-7.331,16.383-16.383V32.757h176.122v446.486H86.969V226.309
				c0-9.052-7.331-16.383-16.383-16.383s-16.383,7.331-16.383,16.383v269.317c0,9.044,7.34,16.374,16.383,16.374h370.819
				c9.043,0,16.383-7.331,16.392-16.374V16.383C457.797,7.331,450.466,0,441.414,0z M216.143,163.386h-106.25l106.25-107.2V163.386z
				"/>
			<path d="M161.323,288.779h189.345c9.052,0,16.383-7.331,16.383-16.383s-7.331-16.383-16.383-16.383H161.323
				c-9.052,0-16.383,7.331-16.383,16.383S152.271,288.779,161.323,288.779z"/>
			<path d="M161.323,355.98h189.345c9.052,0,16.383-7.331,16.383-16.383s-7.331-16.383-16.383-16.383H161.323
				c-9.052,0-16.383,7.331-16.383,16.383S152.271,355.98,161.323,355.98z"/>
			<path d="M161.323,423.189h189.345c9.052,0,16.383-7.331,16.383-16.383s-7.331-16.383-16.383-16.383H161.323
				c-9.052,0-16.383,7.331-16.383,16.383S152.271,423.189,161.323,423.189z"/>
		</g>
	</g>
</g>
<g>
</g>
<g>
</g>
<g>
</g>
<g>
</g>
<g>
</g>
<g>
</g>
<g>
</g>
<g>
</g>
<g>
</g>
<g>
</g>
<g>
</g>
<g>
</g>
<g>
</g>
<g>
</g>
<g>
</g>
</svg>
