<?xml version="1.0" encoding="iso-8859-1"?>
<!-- Generator: Adobe Illustrator 19.0.0, SVG Export Plug-In . SVG Version: 6.00 Build 0)  -->
<svg version="1.1" id="Capa_1" xmlns="http://www.w3.org/2000/svg" xmlns:xlink="http://www.w3.org/1999/xlink" x="0px" y="0px"
	 viewBox="0 0 512 512" style="enable-background:new 0 0 512 512;" xml:space="preserve">
<g>
	<g>
		<g>
			<path d="M33.431,166.605c8.129,3.914,17.936,0.524,21.876-7.623C92.35,82.304,171.3,32.774,256.444,32.774
				S420.537,82.313,457.58,158.99c2.822,5.848,8.671,9.256,14.759,9.256c2.396,0,4.819-0.532,7.118-1.642
				c8.147-3.931,11.555-13.729,7.623-21.876C444.605,56.807,354.074,0,256.444,0S68.282,56.807,25.808,144.729
				C21.867,152.876,25.284,162.674,33.431,166.605z"/>
			<path d="M477.877,349.238c-8.049-4.073-17.927-0.834-22.009,7.242c-38.223,75.71-114.635,122.755-199.424,122.755
				S95.243,432.19,57.011,356.479c-4.082-8.094-13.969-11.333-22.009-7.242c-8.076,4.073-11.315,13.933-7.242,22.009
				C71.601,458.068,159.221,512,256.444,512s184.843-53.932,228.675-140.753C489.192,363.171,485.953,353.311,477.877,349.238z"/>
			<path d="M435.553,144.587c0-9.043-7.331-16.383-16.383-16.383h-29.456c-8.25-14.472-30.036-48.43-62.645-68.042
				c-7.765-4.677-17.82-2.148-22.48,5.6s-2.157,17.82,5.6,22.48c17.374,10.45,31.322,26.787,40.662,39.963h-78.477V69.56
				c0-9.043-7.331-16.383-16.383-16.383c-9.052,0-16.383,7.331-16.383,16.383v58.644h-78.513
				c9.305-13.147,23.237-29.459,40.715-39.972c7.756-4.659,10.259-14.723,5.6-22.48c-4.659-7.748-14.705-10.277-22.48-5.6
				c-32.619,19.618-54.414,53.585-62.656,68.051H93.717c-9.052,0-16.383,7.339-16.383,16.383s7.331,16.383,16.383,16.383h325.453
				C428.223,160.97,435.553,153.63,435.553,144.587z"/>
			<path d="M326.394,192.084c-8.609-2.813-17.856,1.917-20.651,10.508l-18.575,57.1l-15.93-40.3
				c-2.476-6.257-8.511-10.366-15.238-10.366c-6.727,0-12.771,4.109-15.238,10.366l-15.93,40.309l-18.575-57.1
				c-2.796-8.6-12.025-13.33-20.651-10.508c-8.608,2.804-13.312,12.043-10.516,20.651l32.668,100.391
				c2.139,6.567,8.174,11.093,15.078,11.306c6.763,0.186,13.197-3.932,15.735-10.357l17.421-44.081l17.421,44.081
				c2.476,6.274,8.529,10.366,15.238,10.366c0.169,0,0.337,0,0.515-0.018c6.905-0.213,12.939-4.739,15.078-11.306l32.668-100.391
				C339.706,204.127,335.003,194.88,326.394,192.084z"/>
			<path d="M499.353,192.084c-8.617-2.813-17.856,1.917-20.651,10.508l-18.584,57.109l-15.93-40.309
				c-2.476-6.248-8.511-10.357-15.238-10.357s-12.771,4.109-15.238,10.366l-15.93,40.3l-18.566-57.091
				c-2.795-8.6-12.007-13.33-20.651-10.508c-8.608,2.804-13.312,12.043-10.517,20.651l32.659,100.382
				c2.139,6.567,8.174,11.093,15.078,11.306c6.709,0.186,13.197-3.932,15.735-10.357l17.421-44.09l17.43,44.09
				c2.476,6.274,8.529,10.366,15.238,10.366c0.169,0,0.337,0,0.515-0.018c6.905-0.213,12.939-4.739,15.078-11.306l32.668-100.391
				C512.666,204.127,507.962,194.88,499.353,192.084z"/>
			<path d="M49.867,324.442c0.169,0.009,0.337,0.009,0.506,0.009c6.709,0,12.762-4.091,15.256-10.366l17.43-44.09l17.421,44.09
				c2.538,6.425,8.671,10.525,15.735,10.357c6.905-0.213,12.939-4.739,15.078-11.306l32.659-100.382
				c2.796-8.609-1.908-17.856-10.517-20.651c-8.608-2.822-17.856,1.908-20.651,10.508l-18.566,57.091l-15.93-40.3
				c-2.476-6.257-8.511-10.366-15.238-10.366s-12.771,4.1-15.238,10.357l-15.93,40.309l-18.584-57.109
				c-2.796-8.591-12.025-13.321-20.651-10.508c-8.608,2.804-13.312,12.043-10.517,20.651l32.659,100.4
				C36.928,319.703,42.963,324.229,49.867,324.442z"/>
			<path d="M310.171,423.785c-7.748,4.659-10.25,14.732-5.591,22.48c3.08,5.121,8.493,7.943,14.057,7.943
				c2.875,0,5.786-0.754,8.44-2.334c30.947-18.629,52.154-50.173,61.281-65.708h30.811c9.052,0,16.383-7.339,16.383-16.392
				c0-9.052-7.331-16.383-16.383-16.383H256.167c-0.059-0.001-0.116-0.009-0.175-0.009c-0.059,0-0.116,0.008-0.175,0.009H93.717
				c-9.052,0-16.383,7.331-16.383,16.383c0,9.052,7.331,16.392,16.383,16.392h29.933c9.132,15.539,30.332,47.074,61.272,65.7
				c2.645,1.589,5.556,2.343,8.431,2.343c5.564,0,10.978-2.831,14.057-7.952c4.659-7.748,2.157-17.82-5.591-22.48
				c-16.354-9.839-29.673-24.889-38.971-37.611h76.759v56.266c0,9.052,7.331,16.392,16.383,16.392
				c9.052,0,16.383-7.339,16.383-16.392v-56.266h76.824C339.93,398.86,326.622,413.889,310.171,423.785z"/>
		</g>
	</g>
</g>
<g>
</g>
<g>
</g>
<g>
</g>
<g>
</g>
<g>
</g>
<g>
</g>
<g>
</g>
<g>
</g>
<g>
</g>
<g>
</g>
<g>
</g>
<g>
</g>
<g>
</g>
<g>
</g>
<g>
</g>
</svg>
